<svg xmlns="http://www.w3.org/2000/svg" width="495" height="219" viewBox="0 0 495 219" font-family="-apple-system,BlinkMacSystemFont,'Segoe UI',Helvetica,Arial,sans-serif">
<rect width="495" height="219" rx="10" fill="#0d1117" stroke="#30363d"/>
<text x="25" y="38" fill="#4fc3f7" font-size="18" font-weight="600">Most used languages</text>
<defs><clipPath id="r"><rect x="25" y="60" width="445" height="10" rx="5"/></clipPath></defs><g clip-path="url(#r)"><rect x="25" y="60" width="171.9058220279892" height="10" fill="#555555"/><rect x="196.9058220279892" y="60" width="81.74999608530844" height="10" fill="#3178c6"/><rect x="278.65581811329764" y="60" width="81.25298832421856" height="10" fill="#f34b7d"/><rect x="359.9088064375162" y="60" width="48.6114462357576" height="10" fill="#dea584"/><rect x="408.52025267327383" y="60" width="29.71294241113683" height="10" fill="#f1e05a"/><rect x="438.2331950844107" y="60" width="16.464174420497354" height="10" fill="#AA6746"/><rect x="454.697369504908" y="60" width="13.327979471752178" height="10" fill="#3572A5"/><rect x="468.0253489766602" y="60" width="1.9746510233398515" height="10" fill="#ff4a48"/></g><circle cx="31" cy="91" r="6" fill="#555555"/><text x="45" y="95" fill="#c9d1d9" font-size="14">C <tspan fill="#8b949e">38.6%</tspan></text><circle cx="261" cy="91" r="6" fill="#3178c6"/><text x="275" y="95" fill="#c9d1d9" font-size="14">TypeScript <tspan fill="#8b949e">18.4%</tspan></text><circle cx="31" cy="117" r="6" fill="#f34b7d"/><text x="45" y="121" fill="#c9d1d9" font-size="14">C++ <tspan fill="#8b949e">18.3%</tspan></text><circle cx="261" cy="117" r="6" fill="#dea584"/><text x="275" y="121" fill="#c9d1d9" font-size="14">Rust <tspan fill="#8b949e">10.9%</tspan></text><circle cx="31" cy="143" r="6" fill="#f1e05a"/><text x="45" y="147" fill="#c9d1d9" font-size="14">JavaScript <tspan fill="#8b949e">6.7%</tspan></text><circle cx="261" cy="143" r="6" fill="#AA6746"/><text x="275" y="147" fill="#c9d1d9" font-size="14">Solidity <tspan fill="#8b949e">3.7%</tspan></text><circle cx="31" cy="169" r="6" fill="#3572A5"/><text x="45" y="173" fill="#c9d1d9" font-size="14">Python <tspan fill="#8b949e">3.0%</tspan></text><circle cx="261" cy="169" r="6" fill="#ff4a48"/><text x="275" y="173" fill="#c9d1d9" font-size="14">Cairo <tspan fill="#8b949e">0.4%</tspan></text></svg>