<svg xmlns="http://www.w3.org/2000/svg" width="495" height="219" viewBox="0 0 495 219" font-family="-apple-system,BlinkMacSystemFont,'Segoe UI',Helvetica,Arial,sans-serif">
<rect width="495" height="219" rx="10" fill="#0d1117" stroke="#30363d"/>
<text x="25" y="38" fill="#4fc3f7" font-size="18" font-weight="600">Most used languages</text>
<defs><clipPath id="r"><rect x="25" y="60" width="445" height="10" rx="5"/></clipPath></defs><g clip-path="url(#r)"><rect x="25" y="60" width="192.0238335745021" height="10" fill="#3178c6"/><rect x="217.0238335745021" y="60" width="106.82225427105124" height="10" fill="#dea584"/><rect x="323.84608784555337" y="60" width="60.20153042035305" height="10" fill="#f1e05a"/><rect x="384.0476182659064" y="60" width="41.43406702485574" height="10" fill="#3572A5"/><rect x="425.48168529076213" y="60" width="36.51516663773808" height="10" fill="#AA6746"/><rect x="461.99685192850023" y="60" width="4.3794914538117835" height="10" fill="#ff4a48"/><rect x="466.37634338231203" y="60" width="1.9071842759271391" height="10" fill="#4a137a"/><rect x="468.28352765823917" y="60" width="1.7164723417608523" height="10" fill="#00ADD8"/></g><circle cx="31" cy="91" r="6" fill="#3178c6"/><text x="45" y="95" fill="#c9d1d9" font-size="14">TypeScript <tspan fill="#8b949e">43.2%</tspan></text><circle cx="261" cy="91" r="6" fill="#dea584"/><text x="275" y="95" fill="#c9d1d9" font-size="14">Rust <tspan fill="#8b949e">24.0%</tspan></text><circle cx="31" cy="117" r="6" fill="#f1e05a"/><text x="45" y="121" fill="#c9d1d9" font-size="14">JavaScript <tspan fill="#8b949e">13.5%</tspan></text><circle cx="261" cy="117" r="6" fill="#3572A5"/><text x="275" y="121" fill="#c9d1d9" font-size="14">Python <tspan fill="#8b949e">9.3%</tspan></text><circle cx="31" cy="143" r="6" fill="#AA6746"/><text x="45" y="147" fill="#c9d1d9" font-size="14">Solidity <tspan fill="#8b949e">8.2%</tspan></text><circle cx="261" cy="143" r="6" fill="#ff4a48"/><text x="275" y="147" fill="#c9d1d9" font-size="14">Cairo <tspan fill="#8b949e">1.0%</tspan></text><circle cx="31" cy="169" r="6" fill="#4a137a"/><text x="45" y="173" fill="#c9d1d9" font-size="14">Move <tspan fill="#8b949e">0.4%</tspan></text><circle cx="261" cy="169" r="6" fill="#00ADD8"/><text x="275" y="173" fill="#c9d1d9" font-size="14">Go <tspan fill="#8b949e">0.4%</tspan></text></svg>