<svg xmlns="http://www.w3.org/2000/svg" width="495" height="219" viewBox="0 0 495 219" font-family="-apple-system,BlinkMacSystemFont,'Segoe UI',Helvetica,Arial,sans-serif">
<rect width="495" height="219" rx="10" fill="#0d1117" stroke="#30363d"/>
<text x="25" y="38" fill="#4fc3f7" font-size="18" font-weight="600">Most used languages</text>
<defs><clipPath id="r"><rect x="25" y="60" width="445" height="10" rx="5"/></clipPath></defs><g clip-path="url(#r)"><rect x="25" y="60" width="162.7008156081724" height="10" fill="#555555"/><rect x="187.7008156081724" y="60" width="92.07516216078085" height="10" fill="#3178c6"/><rect x="279.7759777689532" y="60" width="76.8792894862443" height="10" fill="#f34b7d"/><rect x="356.65526725519754" y="60" width="49.719200252293334" height="10" fill="#dea584"/><rect x="406.37446750749086" y="60" width="32.722713546529754" height="10" fill="#f1e05a"/><rect x="439.0971810540206" y="60" width="15.577938209174256" height="10" fill="#AA6746"/><rect x="454.67511926319486" y="60" width="13.456521544255823" height="10" fill="#3572A5"/><rect x="468.1316408074507" y="60" width="1.8683591925492786" height="10" fill="#ff4a48"/></g><circle cx="31" cy="91" r="6" fill="#555555"/><text x="45" y="95" fill="#c9d1d9" font-size="14">C <tspan fill="#8b949e">36.6%</tspan></text><circle cx="261" cy="91" r="6" fill="#3178c6"/><text x="275" y="95" fill="#c9d1d9" font-size="14">TypeScript <tspan fill="#8b949e">20.7%</tspan></text><circle cx="31" cy="117" r="6" fill="#f34b7d"/><text x="45" y="121" fill="#c9d1d9" font-size="14">C++ <tspan fill="#8b949e">17.3%</tspan></text><circle cx="261" cy="117" r="6" fill="#dea584"/><text x="275" y="121" fill="#c9d1d9" font-size="14">Rust <tspan fill="#8b949e">11.2%</tspan></text><circle cx="31" cy="143" r="6" fill="#f1e05a"/><text x="45" y="147" fill="#c9d1d9" font-size="14">JavaScript <tspan fill="#8b949e">7.4%</tspan></text><circle cx="261" cy="143" r="6" fill="#AA6746"/><text x="275" y="147" fill="#c9d1d9" font-size="14">Solidity <tspan fill="#8b949e">3.5%</tspan></text><circle cx="31" cy="169" r="6" fill="#3572A5"/><text x="45" y="173" fill="#c9d1d9" font-size="14">Python <tspan fill="#8b949e">3.0%</tspan></text><circle cx="261" cy="169" r="6" fill="#ff4a48"/><text x="275" y="173" fill="#c9d1d9" font-size="14">Cairo <tspan fill="#8b949e">0.4%</tspan></text></svg>