<svg xmlns="http://www.w3.org/2000/svg" width="495" height="219" viewBox="0 0 495 219" font-family="-apple-system,BlinkMacSystemFont,'Segoe UI',Helvetica,Arial,sans-serif">
<rect width="495" height="219" rx="10" fill="#0d1117" stroke="#30363d"/>
<text x="25" y="38" fill="#4fc3f7" font-size="18" font-weight="600">Most used languages</text>
<defs><clipPath id="r"><rect x="25" y="60" width="445" height="10" rx="5"/></clipPath></defs><g clip-path="url(#r)"><rect x="25" y="60" width="170.50239145308188" height="10" fill="#555555"/><rect x="195.50239145308188" y="60" width="82.45966240915834" height="10" fill="#3178c6"/><rect x="277.9620538622402" y="60" width="80.5896429716788" height="10" fill="#f34b7d"/><rect x="358.55169683391904" y="60" width="48.366647121405954" height="10" fill="#dea584"/><rect x="406.918343955325" y="60" width="31.58862608737303" height="10" fill="#f1e05a"/><rect x="438.506970042698" y="60" width="16.329761719986422" height="10" fill="#AA6746"/><rect x="454.83673176268445" y="60" width="13.204738166647584" height="10" fill="#3572A5"/><rect x="468.04146992933204" y="60" width="1.9585300706680102" height="10" fill="#ff4a48"/></g><circle cx="31" cy="91" r="6" fill="#555555"/><text x="45" y="95" fill="#c9d1d9" font-size="14">C <tspan fill="#8b949e">38.3%</tspan></text><circle cx="261" cy="91" r="6" fill="#3178c6"/><text x="275" y="95" fill="#c9d1d9" font-size="14">TypeScript <tspan fill="#8b949e">18.5%</tspan></text><circle cx="31" cy="117" r="6" fill="#f34b7d"/><text x="45" y="121" fill="#c9d1d9" font-size="14">C++ <tspan fill="#8b949e">18.1%</tspan></text><circle cx="261" cy="117" r="6" fill="#dea584"/><text x="275" y="121" fill="#c9d1d9" font-size="14">Rust <tspan fill="#8b949e">10.9%</tspan></text><circle cx="31" cy="143" r="6" fill="#f1e05a"/><text x="45" y="147" fill="#c9d1d9" font-size="14">JavaScript <tspan fill="#8b949e">7.1%</tspan></text><circle cx="261" cy="143" r="6" fill="#AA6746"/><text x="275" y="147" fill="#c9d1d9" font-size="14">Solidity <tspan fill="#8b949e">3.7%</tspan></text><circle cx="31" cy="169" r="6" fill="#3572A5"/><text x="45" y="173" fill="#c9d1d9" font-size="14">Python <tspan fill="#8b949e">3.0%</tspan></text><circle cx="261" cy="169" r="6" fill="#ff4a48"/><text x="275" y="173" fill="#c9d1d9" font-size="14">Cairo <tspan fill="#8b949e">0.4%</tspan></text></svg>